<mxfile host="app.diagrams.net" modified="2024-10-19T13:39:06.697Z" agent="Mozilla/5.0 (Windows NT 10.0; Win64; x64) AppleWebKit/537.36 (KHTML, like Gecko) Chrome/127.0.0.0 Safari/537.36 OPR/113.0.0.0" etag="0zDvVMOpwEehoZmD9Oc2" version="24.2.0" type="github">
  <diagram name="Página-1" id="ihW6gbmQV1wjjzIfWGDt">
    <mxGraphModel dx="833" dy="451" grid="1" gridSize="10" guides="1" tooltips="1" connect="1" arrows="1" fold="1" page="1" pageScale="1" pageWidth="827" pageHeight="1169" math="0" shadow="0">
      <root>
        <mxCell id="0" />
        <mxCell id="1" parent="0" />
        <mxCell id="XbyoVAvtVjQKdKrexZeH-1" value="Secretária" style="shape=umlActor;verticalLabelPosition=bottom;verticalAlign=top;html=1;outlineConnect=0;" vertex="1" parent="1">
          <mxGeometry x="170" y="210" width="30" height="60" as="geometry" />
        </mxCell>
        <mxCell id="XbyoVAvtVjQKdKrexZeH-2" value="Veterinário" style="shape=umlActor;verticalLabelPosition=bottom;verticalAlign=top;html=1;outlineConnect=0;" vertex="1" parent="1">
          <mxGeometry x="660" y="210" width="30" height="60" as="geometry" />
        </mxCell>
        <mxCell id="XbyoVAvtVjQKdKrexZeH-7" value="" style="whiteSpace=wrap;html=1;aspect=fixed;" vertex="1" parent="1">
          <mxGeometry x="240" y="80" width="380" height="380" as="geometry" />
        </mxCell>
        <mxCell id="XbyoVAvtVjQKdKrexZeH-8" value="Marcar Consulta" style="ellipse;whiteSpace=wrap;html=1;" vertex="1" parent="1">
          <mxGeometry x="280" y="90" width="110" height="60" as="geometry" />
        </mxCell>
        <mxCell id="XbyoVAvtVjQKdKrexZeH-10" value="Realizar Consulta" style="ellipse;whiteSpace=wrap;html=1;" vertex="1" parent="1">
          <mxGeometry x="470" y="90" width="110" height="60" as="geometry" />
        </mxCell>
        <mxCell id="XbyoVAvtVjQKdKrexZeH-12" value="Registrar Sintomas" style="ellipse;whiteSpace=wrap;html=1;" vertex="1" parent="1">
          <mxGeometry x="280" y="250" width="110" height="60" as="geometry" />
        </mxCell>
        <mxCell id="XbyoVAvtVjQKdKrexZeH-13" value="Marcar exame" style="ellipse;whiteSpace=wrap;html=1;" vertex="1" parent="1">
          <mxGeometry x="280" y="330" width="110" height="60" as="geometry" />
        </mxCell>
        <mxCell id="XbyoVAvtVjQKdKrexZeH-15" value="Atualizar cadastro" style="ellipse;whiteSpace=wrap;html=1;" vertex="1" parent="1">
          <mxGeometry x="280" y="170" width="110" height="60" as="geometry" />
        </mxCell>
        <mxCell id="XbyoVAvtVjQKdKrexZeH-16" value="Registrar resultados" style="ellipse;whiteSpace=wrap;html=1;" vertex="1" parent="1">
          <mxGeometry x="280" y="390" width="110" height="60" as="geometry" />
        </mxCell>
        <mxCell id="XbyoVAvtVjQKdKrexZeH-17" value="Registrar Sintomas" style="ellipse;whiteSpace=wrap;html=1;" vertex="1" parent="1">
          <mxGeometry x="470" y="170" width="110" height="60" as="geometry" />
        </mxCell>
        <mxCell id="XbyoVAvtVjQKdKrexZeH-19" value="Solicitar exame" style="ellipse;whiteSpace=wrap;html=1;" vertex="1" parent="1">
          <mxGeometry x="480" y="260" width="110" height="60" as="geometry" />
        </mxCell>
      </root>
    </mxGraphModel>
  </diagram>
</mxfile>
